# xmcd
#
# Track frame offsets:
#	150
#	13142
#	28027
#	43761
#	59993
#	73736
#	90611
#	104704
#	123465
#	143724
#	159872
#	168753
#	188827
#	205866
#	225659
#	242553
#	262507
#	279182
#	293741
#	308647
#
# Disc length: 4393 seconds
#
# Revision: 0
# Processed by: cddbd v1.5.2PL0 Copyright (c) Steve Scherf et al.
# Submitted via: EasyCDDAExtractor 16.0.9.1
#
DISCID=15112714
DTITLE=Hott Urban Trakks Volume 4 Canada
DYEAR=2015
DGENRE=blues
TTITLE0=Drake\n - Back To Back\n
TTITLE1=Fetty Wap ft. Remy Boyz\n - 679\n
TTITLE2=Migos\n - Pipe It Up\n
TTITLE3=Kirko Bangz ft. Fetty Wap\n - Worry Bout It\n
TTITLE4=OMI\n - Cheerleader\n
TTITLE5=Jill Scott\n - Back Together\n
TTITLE6=Jamie Foxx\n - In Love By Now\n
TTITLE7=E-40\n - Choices (Yup]\n
TTITLE8=Jaheim\n - Back In My Arms\n
TTITLE9=Chedda Da Connect ft. Kevin Gates and Scrilla\n - Whippin Up\n
TTITLE10=Calvin Richardson\n - Before This Moment Leaves\n
TTITLE11=Avery Wilson ft. Migos\n - Change My Mind\n
TTITLE12=Rita Ora ft. Chris Brown\n - Body On Me\n
TTITLE13=Joe Budden\n - Broke\n
TTITLE14=Fifth Harmony ft. Kid Ink\n - Worth It\n
TTITLE15=Travi$ Scott\n - Antidote\n
TTITLE16=Brian McKnight\n - Uh Oh Feeling\n
TTITLE17=David Guetta ft. Nicki Minaj and Afrojack\n - Hey Mama\n
TTITLE18=Natasha Mosley\n - Anything\n
TTITLE19=Young Dro ft. T.I.\n - We In Da City\n [Remix\n]
EXTD=
EXTT0=
EXTT1=
EXTT2=
EXTT3=
EXTT4=
EXTT5=
EXTT6=
EXTT7=
EXTT8=
EXTT9=
EXTT10=
EXTT11=
EXTT12=
EXTT13=
EXTT14=
EXTT15=
EXTT16=
EXTT17=
EXTT18=
EXTT19=
PLAYORDER=
